HIERARCHY
ROOT Hips
{
	OFFSET 0.00000 0.00000 0.00000
	CHANNELS 6 Xposition Yposition Zposition Zrotation Yrotation Xrotation 
	JOINT LHipJoint
	{
		OFFSET 0 0 0
		CHANNELS 3 Zrotation Yrotation Xrotation
		JOINT LeftUpLeg
		{
			OFFSET 1.40001 -1.72600 0.84541
			CHANNELS 3 Zrotation Yrotation Xrotation
			JOINT LeftLeg
			{
				OFFSET 2.34760 -6.44999 0.00000
				CHANNELS 3 Zrotation Yrotation Xrotation
				JOINT LeftFoot
				{
					OFFSET 2.50650 -6.88655 0.00000
					CHANNELS 3 Zrotation Yrotation Xrotation
					JOINT LeftToeBase
					{
						OFFSET 0.12464 -0.34243 1.95563
						CHANNELS 3 Zrotation Yrotation Xrotation
						End Site
						{
							OFFSET 0.00000 -0.00000 1.00479
						}
					}
				}
			}
		}
	}
	JOINT RHipJoint
	{
		OFFSET 0 0 0
		CHANNELS 3 Zrotation Yrotation Xrotation
		JOINT RightUpLeg
		{
			OFFSET -1.40958 -1.72600 0.84541
			CHANNELS 3 Zrotation Yrotation Xrotation
			JOINT RightLeg
			{
				OFFSET -2.37905 -6.53640 0.00000
				CHANNELS 3 Zrotation Yrotation Xrotation
				JOINT RightFoot
				{
					OFFSET -2.50470 -6.88163 0.00000
					CHANNELS 3 Zrotation Yrotation Xrotation
					JOINT RightToeBase
					{
						OFFSET -0.12236 -0.33619 1.81785
						CHANNELS 3 Zrotation Yrotation Xrotation
						End Site
						{
							OFFSET -0.00000 -0.00000 0.93746
						}
					}
				}
			}
		}
	}
	JOINT LowerBack
	{
		OFFSET 0 0 0
		CHANNELS 3 Zrotation Yrotation Xrotation
		JOINT Spine
		{
			OFFSET -0.02146 1.96915 0.26424
			CHANNELS 3 Zrotation Yrotation Xrotation
			JOINT Spine1
			{
				OFFSET 0.01522 1.99484 0.02086
				CHANNELS 3 Zrotation Yrotation Xrotation
				JOINT Neck
				{
					OFFSET 0 0 0
					CHANNELS 3 Zrotation Yrotation Xrotation
					JOINT Neck1
					{
						OFFSET -0.02954 1.71757 0.03505
						CHANNELS 3 Zrotation Yrotation Xrotation
						JOINT Head
						{
							OFFSET 0.04170 1.65781 -0.11024
							CHANNELS 3 Zrotation Yrotation Xrotation
							End Site
							{
								OFFSET 0.01600 1.81465 -0.05144
							}
						}
					}
				}
				JOINT LeftShoulder
				{
					OFFSET 0 0 0
					CHANNELS 3 Zrotation Yrotation Xrotation
					JOINT LeftArm
					{
						OFFSET 2.77679 1.60868 -0.78649
						CHANNELS 3 Zrotation Yrotation Xrotation
						JOINT LeftForeArm
						{
							OFFSET 4.62672 -0.00000 -0.00000
							CHANNELS 3 Zrotation Yrotation Xrotation
							JOINT LeftHand
							{
								OFFSET 3.11018 -0.00000 -0.00000
								CHANNELS 3 Zrotation Yrotation Xrotation
								JOINT LeftFingerBase
								{
									OFFSET 0 0 0
									CHANNELS 3 Zrotation Yrotation Xrotation
									JOINT LeftHandIndex1
									{
										OFFSET 0.74383 -0.00000 -0.00000
										CHANNELS 3 Zrotation Yrotation Xrotation
										End Site
										{
											OFFSET 0.59970 -0.00000 -0.00000
										}
									}
								}
								JOINT LThumb
								{
									OFFSET 0 0 0
									CHANNELS 3 Zrotation Yrotation Xrotation
									End Site
									{
										OFFSET 0.60885 -0.00000 0.60885
									}
								}
							}
						}
					}
				}
				JOINT RightShoulder
				{
					OFFSET 0 0 0
					CHANNELS 3 Zrotation Yrotation Xrotation
					JOINT RightArm
					{
						OFFSET -2.73247 1.63658 -0.74740
						CHANNELS 3 Zrotation Yrotation Xrotation
						JOINT RightForeArm
						{
							OFFSET -4.55919 -0.00000 -0.00000
							CHANNELS 3 Zrotation Yrotation Xrotation
							JOINT RightHand
							{
								OFFSET -3.22748 -0.00000 -0.00000
								CHANNELS 3 Zrotation Yrotation Xrotation
								JOINT RightFingerBase
								{
									OFFSET 0 0 0
									CHANNELS 3 Zrotation Yrotation Xrotation
									JOINT RightHandIndex1
									{
										OFFSET -0.70088 -0.00000 -0.00000
										CHANNELS 3 Zrotation Yrotation Xrotation
										End Site
										{
											OFFSET -0.56507 -0.00000 -0.00000
										}
									}
								}
								JOINT RThumb
								{
									OFFSET 0 0 0
									CHANNELS 3 Zrotation Yrotation Xrotation
									End Site
									{
										OFFSET -0.57370 -0.00000 0.57370
									}
								}
							}
						}
					}
				}
			}
		}
	}
}
MOTION
Frames: 7
Frame Time: .0083333
-0.4112 16.4844 2.1634 1.6521 -2.7489 15.6356 0.0000 0.0000 0.0000 -23.8105 -8.2087 -27.7987 3.3061 11.1748 32.8717 1.0041 -8.4850 -17.9836 0.0014 -0.2399 -0.6590 0.0000 0.0000 0.0000 14.7206 6.8973 -39.2597 -14.3085 -19.2049 73.1443 -0.0697 3.9463 -5.0841 -0.4862 4.4713 -12.4065 -3.7128 -0.2138 -14.8589 -1.1000 0.2941 -4.8702 0.9951 0.1485 3.1579 -0.8314 -0.5419 -4.7600 2.4936 -0.9474 11.5542 0.9443 -0.3762 4.7105 -0.0000 -0.0000 0.0000 -88.9971 5.7299 1.4148 8.2885 -14.0195 -1.0209 -0.0000 -0.0000 27.2355 16.0576 -14.0828 -4.0063 -7.1250 0.0000 -0.0000 -7.7714 15.4400 5.4733 -0.0000 -0.0000 0.0000 91.8176 -13.2045 15.1221 -13.5627 22.1061 -2.6613 0.0000 -0.0000 -4.9863 -17.5681 -31.8397 9.4823 7.1250 -0.0000 -0.0000 17.3064 -62.2356 -7.3707
-0.4113 16.4748 2.3615 1.6155 -2.3618 15.5346 0.0000 0.0000 0.0000 -23.9489 -7.4716 -27.1083 3.3157 11.1894 32.9212 1.0400 -9.5764 -18.4161 0.0006 0.1626 0.4468 0.0000 0.0000 0.0000 14.7625 7.1608 -40.3275 -13.9903 -19.1111 72.1747 -0.1239 4.0560 -6.4539 -0.3565 3.8357 -10.6150 -3.7136 -0.3559 -14.8104 -0.9673 0.1013 -4.8116 1.1015 0.0525 3.2016 -0.7725 -0.5850 -4.5867 2.3664 -0.9981 11.6318 0.8877 -0.4058 4.7028 0.0000 0.0000 0.0000 -88.6106 4.4086 5.3316 8.7917 -14.8278 -1.1462 -0.0000 -0.0000 24.0796 16.1901 -13.7151 -3.9379 -7.1250 0.0000 -0.0000 -7.6773 15.8059 5.3447 0.0000 0.0000 0.0000 91.9364 -13.7154 12.8244 -12.4367 20.4563 -2.2526 0.0000 -0.0000 -2.8769 -17.7499 -32.9444 9.8750 7.1250 -0.0000 -0.0000 18.0369 -63.3296 -8.1566
-0.4091 16.4616 2.5616 1.4632 -2.0513 15.4558 0.0000 0.0000 0.0000 -23.9509 -6.7262 -26.4333 3.3279 11.2079 32.9843 1.0845 -10.4718 -18.9135 0.0071 0.5426 1.4911 0.0000 0.0000 0.0000 14.8672 7.5424 -41.3365 -13.6221 -18.9954 71.0471 -0.1926 4.2636 -7.9053 -0.3782 3.9495 -10.9347 -3.5339 -0.4206 -14.9221 -0.8224 -0.0067 -4.6809 1.1332 -0.0051 3.4049 -0.9835 -0.6808 -4.4178 2.4844 -1.1206 11.5232 0.9582 -0.4711 4.6343 0.0000 0.0000 0.0000 -88.2485 3.0655 9.2373 9.3989 -15.7939 -1.3066 -0.0000 -0.0000 20.5583 16.0274 -13.1916 -3.7507 -7.1250 0.0000 -0.0000 -7.7853 16.3561 5.3277 0.0000 0.0000 0.0000 92.0636 -14.1456 10.2071 -11.3265 18.7870 -1.8797 0.0000 -0.0000 -0.9310 -18.2470 -32.5942 10.0707 7.1250 -0.0000 -0.0000 17.1741 -63.1283 -7.6733
-0.4137 16.4453 2.7562 1.1788 -1.7334 15.5067 0.0000 0.0000 0.0000 -23.7362 -6.0507 -25.9246 3.3343 11.2176 33.0172 1.1282 -11.2213 -19.3886 0.0085 0.5954 1.6362 0.0000 0.0000 0.0000 15.1628 8.0368 -42.4151 -13.1767 -18.8450 69.6736 -0.2703 4.1296 -9.2678 -0.6945 5.3273 -14.8445 -3.2959 -0.4751 -15.0292 -0.6348 -0.1158 -4.6454 1.1764 -0.0603 3.5055 -1.1525 -0.7541 -4.2865 2.5810 -1.2155 11.4853 1.0160 -0.5215 4.5989 0.0000 0.0000 0.0000 -87.7890 1.8772 13.0900 10.0841 -16.8711 -1.4993 -0.0000 -0.0000 16.9535 15.7673 -12.4886 -3.4940 -7.1250 0.0000 -0.0000 -7.9635 17.0966 5.3225 0.0000 0.0000 0.0000 92.1767 -14.6512 7.2192 -10.4277 17.4057 -1.6005 0.0000 0.0000 1.5203 -17.9307 -31.8926 9.7014 7.1250 -0.0000 -0.0000 16.9461 -62.3783 -7.2694
-0.4140 16.4288 2.9455 1.0891 -1.1783 15.6268 0.0000 0.0000 0.0000 -23.6636 -5.6897 -25.4085 3.3334 11.2162 33.0124 1.1446 -12.0212 -19.6695 0.0123 0.7164 1.9687 0.0000 0.0000 0.0000 15.2773 8.2006 -43.5727 -12.6516 -18.6527 68.0398 -0.3340 3.8419 -10.2744 -0.8800 5.9804 -16.7275 -3.1579 -0.6488 -15.0088 -0.5263 -0.3707 -4.6655 1.1674 -0.1853 3.4847 -1.1602 -0.7875 -3.9641 2.6065 -1.2585 11.2037 1.0216 -0.5452 4.4322 0.0000 0.0000 0.0000 -87.2544 0.3539 16.0486 10.5801 -17.6419 -1.6464 -0.0000 -0.0000 14.4527 15.9266 -11.9374 -3.3779 -7.1250 0.0000 -0.0000 -7.8540 17.6500 5.1517 0.0000 0.0000 0.0000 92.3786 -15.0986 3.3296 -9.5407 16.0180 -1.3454 0.0000 0.0000 5.2634 -17.2819 -31.7428 9.2959 7.1250 -0.0000 -0.0000 17.5449 -62.0711 -7.4074
-0.4143 16.4164 3.1365 1.1612 -0.8297 15.7012 0.0000 0.0000 0.0000 -23.7945 -5.2495 -24.8465 3.3354 11.2192 33.0227 1.1816 -12.6568 -20.0840 0.0125 0.7211 1.9818 0.0000 0.0000 0.0000 15.1478 8.4933 -44.6262 -12.0461 -18.4101 66.1349 -0.3685 3.5361 -10.7992 -0.7454 5.5151 -15.3837 -3.1917 -0.7679 -14.8383 -0.4960 -0.5315 -4.7079 1.1911 -0.2625 3.3559 -1.1993 -0.8181 -4.0012 2.7423 -1.3129 11.2588 1.0724 -0.5666 4.4634 0.0000 0.0000 0.0000 -86.7249 -1.0808 18.7887 11.1467 -18.5128 -1.8222 -0.0000 -0.0000 12.1328 16.3008 -11.7194 -3.3993 -7.1250 0.0000 -0.0000 -7.5934 17.8474 4.9445 0.0000 0.0000 0.0000 92.6212 -15.5856 -0.8859 -8.6991 14.6796 -1.1226 0.0000 0.0000 9.1817 -17.2292 -31.6977 9.2546 7.1250 -0.0000 -0.0000 17.5667 -62.0149 -7.3936
-0.4154 16.4025 3.3354 1.1213 -0.3819 15.7581 0.0000 0.0000 0.0000 -23.7755 -4.8067 -24.1996 3.3362 11.2203 33.0265 1.2508 -13.3128 -20.7370 0.0084 0.5929 1.6293 0.0000 0.0000 0.0000 15.1868 8.6830 -45.4744 -11.3702 -18.1115 63.9781 -0.4138 3.1236 -11.4806 -0.7823 5.6467 -15.7627 -3.0855 -0.8583 -14.8311 -0.4399 -0.6684 -4.7167 1.1662 -0.3298 3.3486 -1.2616 -0.8453 -4.1577 2.9064 -1.3678 11.5096 1.1387 -0.5859 4.5912 0.0000 0.0000 0.0000 -86.2289 -2.0541 21.5955 12.1386 -20.0121 -2.1495 -0.0000 -0.0000 9.7479 17.1512 -12.0748 -3.6938 -7.1250 0.0000 -0.0000 -7.0011 17.4182 4.6191 0.0000 0.0000 0.0000 92.7969 -16.1495 -4.9596 -8.0487 13.6318 -0.9636 0.0000 0.0000 12.6110 -17.0010 -31.8326 9.1609 7.1250 -0.0000 -0.0000 17.9281 -62.0854 -7.5809
